<svg width="24" height="24" viewBox="0 0 24 24" fill="none" xmlns="http://www.w3.org/2000/svg">
<g clip-path="url(#clip0_170_2204)">
<path d="M11.4078 23.8421C3.68521 23.8421 0.655205 22.6658 0.529837 22.6156C0.305311 22.5253 0.157837 22.3077 0.157837 22.0658V10.8158C0.157837 10.4889 0.4231 10.2237 0.749942 10.2237C3.0691 10.2237 5.19247 11.3217 6.52668 13.1861C7.71594 12.6897 8.93647 12.4355 10.6866 12.6868C12.161 12.8946 13.5123 13.4274 14.5891 14.2134C14.7858 13.638 15.1136 13.1201 15.5529 12.702C15.9432 12.3357 16.1567 11.8816 16.1567 11.4199C16.1567 10.733 16.1529 9.88168 16.1497 9.26747L15.8403 9.37041C15.1995 9.5842 14.5042 9.42031 14.0267 8.94315L13.6124 8.52884C13.5258 8.44263 13.4223 8.38673 13.3127 8.36747L12.8895 8.28189C11.3182 7.9661 10.2726 6.42852 10.559 4.85399C11.1372 1.65062 11.9715 0.158203 13.1845 0.158203C14.3532 0.158203 16.8309 0.835256 18.7032 1.40336C19.9771 1.78705 20.9952 2.77799 21.4256 4.05441L21.9887 5.74389C23.219 9.43484 23.8427 13.2786 23.8427 17.1692V19.1409C23.8427 21.1822 22.3294 22.9434 20.3229 23.238C18.502 23.5134 15.4749 23.8421 11.4085 23.8421H11.4078Z" fill="#9B51E0"/>
</g>
<defs>
<clipPath id="clip0_170_2204">
<rect width="24" height="24" fill="white"/>
</clipPath>
</defs>
</svg>
