<svg width="24" height="24" viewBox="0 0 24 24" fill="none" xmlns="http://www.w3.org/2000/svg">
<path d="M12.0261 0.0260925C11.5044 0.0260925 11.1653 0.260875 10.8522 0.495658C8.16527 2.34783 5.76527 3.28696 3.28701 3.4174C2.63484 3.44348 1.53918 3.73044 1.53918 5.26957V7.74783C1.53918 9.4174 1.53918 11.1131 1.53918 12.7826C1.53918 13.4609 1.61745 14.1652 1.80005 14.9478C2.16527 16.6174 3.05223 18.1565 4.5131 19.6174C6.28701 21.4174 8.53049 22.8 11.4001 23.8957C11.5827 23.9478 11.7914 24 12.0001 24C12.287 24 12.574 23.9478 12.7566 23.8435L13.487 23.5304C14.087 23.2696 14.687 23.0087 15.287 22.6957C17.5566 21.5217 19.2783 20.087 20.5827 18.3391C21.7305 16.8261 22.3566 15.2087 22.4088 13.5391C22.4609 12.4174 22.4609 11.2957 22.4609 10.1739V5.2174C22.4609 4.25218 21.887 3.60001 20.8957 3.46957L20.4522 3.39131C19.8783 3.31305 19.3566 3.26088 18.8348 3.15653C16.9827 2.73914 15.1827 1.90435 13.174 0.495658C12.887 0.286962 12.5218 0.0260925 12.0261 0.0260925ZM19.9305 12.2348C19.9305 12.6261 19.9305 13.0174 19.9044 13.4087C19.8522 14.5826 19.4088 15.6783 18.574 16.8C17.5044 18.2348 16.0435 19.4348 14.1653 20.4261C13.6174 20.7131 13.0435 20.9478 12.4957 21.1826C12.3392 21.2609 12.1827 21.3131 12.0261 21.3913V12.2348H4.06962C4.06962 10.7478 4.06962 9.26088 4.06962 7.77392V5.89566C6.7044 5.63479 9.26092 4.6174 12.0001 2.76522V12.2348H19.9305Z" fill="#219653"/>
</svg>
