<svg width="24" height="24" viewBox="0 0 24 24" fill="none" xmlns="http://www.w3.org/2000/svg">
<g clip-path="url(#clip0_111_729)">
<path d="M18.6279 13.1058C21.2215 11.8559 24.5893 8.50174 23.5401 6.93071C22.3852 5.20109 19.8652 6.93071 19.8652 6.93071C22.3852 5.09276 23.5401 1.63352 21.8598 0.768548C20.1798 -0.0964254 18.0801 3.90379 13.5652 6.82271C9.05029 9.74163 4.53505 8.01168 1.38521 12.5522C-1.76463 17.0924 0.992451 21.8525 4.32521 22.8226C7.31321 23.6918 10.2136 22.9089 11.7188 21.7439C11.761 21.7115 13.7228 20.2818 13.646 17.5423C13.6197 16.592 13.3411 15.5736 12.3532 14.4498C11.5453 13.5307 10.2289 13.0196 8.89494 13.0218C7.40888 13.0212 5.98737 13.6449 5.23915 14.792C4.82402 15.4205 4.63818 16.1101 4.63753 16.7671C4.63688 17.5167 4.88402 18.212 5.2904 18.6959C5.70132 19.1798 6.24034 19.473 6.97461 19.4782C9.31267 19.5797 9.95483 17.8345 9.96034 17.4424C9.96034 17.0438 9.79656 16.5777 9.40283 16.1133C9.40283 16.1133 11.4652 16.0118 11.5343 17.4424C11.5395 18.2869 11.1788 19.1224 10.5227 19.7444C9.86726 20.3717 8.94294 20.8072 7.77051 21.0265C7.49807 21.0758 7.23213 21.1001 6.97461 21.1001C5.79018 21.1053 4.76726 20.5666 4.09559 19.7542C3.41937 18.9414 3.06359 17.876 3.06229 16.7675C3.06229 15.7951 3.34056 14.7823 3.93634 13.8803C5.06596 12.1812 7.00575 11.4018 8.89494 11.4005C10.5993 11.4031 12.3325 12.0291 13.5166 13.3575C14.7396 14.7271 15.227 16.2051 15.2212 17.5429C15.2063 18.6787 14.8904 19.6841 14.484 20.5238C17.9559 19.7743 23.3361 16.0877 22.4906 13.9582C21.8167 12.262 19.7553 12.7095 18.6279 13.1058Z" fill="#F2994A"/>
</g>
<defs>
<clipPath id="clip0_111_729">
<rect width="24" height="24" fill="white"/>
</clipPath>
</defs>
</svg>
