<svg width="24" height="24" viewBox="0 0 24 24" fill="none" xmlns="http://www.w3.org/2000/svg">
<g clip-path="url(#clip0_170_2189)">
<path d="M21.5193 5.92096C21.5193 1.85289 16.7028 0 12.228 0C7.78345 0 3 1.85289 3 5.92096C3 7.97217 3.72198 9.75251 4.74888 11.252C3.76008 12.725 3.22863 14.4572 3.22863 16.2711C3.22863 18.6837 4.16803 20.9515 5.87385 22.6571C6.76903 23.5523 9.51443 24 12.2598 24C15.0051 24 17.7505 23.5523 18.6456 22.6571C20.3515 20.9515 21.2907 18.6837 21.2907 16.2711C21.2907 14.4509 20.7553 12.7133 19.76 11.2371C20.7923 9.73634 21.5193 7.9593 21.5193 5.92096ZM12.6788 10.8128C11.1826 10.8128 9.77596 11.3954 8.71793 12.4534C7.6599 13.5114 7.0773 14.9181 7.0773 16.4143C7.0773 16.8352 6.73614 17.1764 6.31519 17.1764C5.89424 17.1764 5.55308 16.8352 5.55308 16.4143C5.55308 14.5108 6.29435 12.7213 7.64025 11.3757C8.98586 10.0298 10.7753 9.28855 12.6788 9.28855C13.0998 9.28855 13.4409 9.62971 13.4409 10.0507C13.4409 10.4716 13.0998 10.8128 12.6788 10.8128ZM18.0688 9.3581C16.4441 7.98808 14.4099 7.24007 12.2597 7.24007C10.1051 7.24007 8.06714 7.99122 6.44082 9.36662C5.83457 8.34126 5.43876 7.18782 5.43876 5.92096C5.43876 4.19058 7.7708 2.43876 12.228 2.43876C15.5499 2.43876 19.0806 3.65918 19.0806 5.92096C19.0806 7.18027 18.6807 8.33185 18.0688 9.3581Z" fill="#2D9CDB"/>
</g>
<defs>
<clipPath id="clip0_170_2189">
<rect width="24" height="24" fill="white"/>
</clipPath>
</defs>
</svg>
