<svg width="24" height="24" viewBox="0 0 24 24" fill="none" xmlns="http://www.w3.org/2000/svg">
<path d="M12.1464 3.98939C6.92783 -1.22915 0.146362 2.57573 0.146362 9.25768C0.146362 14.0869 5.21856 19.5513 12.1464 22.4284C18.8781 19.6977 23.8537 13.9406 23.8537 9.25768C23.8537 2.42939 17.4878 -1.35207 12.1464 3.98939ZM5.4088 7.63622C4.361 7.63622 3.51222 6.78744 3.51222 5.73963C3.51222 4.69183 4.361 3.84305 5.4088 3.84305C6.45661 3.84305 7.30539 4.69183 7.30539 5.73963C7.30539 6.78744 6.45661 7.63622 5.4088 7.63622ZM12.1464 19.7943C16.7561 17.3416 19.4634 14.5991 21.8049 9.25768C21.8049 14.1601 15.84 19.7943 12.1464 19.7943Z" fill="#EB5757"/>
</svg>
