<svg width="24" height="24" viewBox="0 0 24 24" fill="none" xmlns="http://www.w3.org/2000/svg">
<g clip-path="url(#clip0_111_730)">
<path fill-rule="evenodd" clip-rule="evenodd" d="M10.1934 22.4031L11.4484 21.1482L9.56592 19.2657L22.7929 8.33916C23.5571 7.70812 24 6.76733 24 5.77594V0.698322L18.2674 0.0229032C17.1455 -0.10934 16.0343 0.337093 15.3154 1.20688L4.5451 14.2449L2.66262 12.3624L1.40764 13.6174L3.91761 16.1282L1.40764 18.6382L0.780149 18.0107C-0.26005 19.0509 -0.26005 20.7354 0.780149 21.7756L2.03513 23.0306C3.07533 24.0708 4.75988 24.0708 5.80008 23.0306L5.17259 22.4031L7.68256 19.8932L10.1934 22.4031ZM22.1175 2.66245L7.68256 16.6119C6.62816 15.5566 6.58289 14.102 7.58226 12.9925L17.0976 2.66245H22.1175ZM2.66262 19.8932L4.5451 18.0107L5.80008 19.2657L3.91761 21.1482L2.66262 19.8932Z" fill="#F2C94C"/>
<path d="M5.36606 11.7626L11.3658 4.4528L8.68458 1.20707C7.96567 0.337276 6.87222 -0.109157 5.75037 0.0230863L0.0363769 0.698505V5.77613C0.0363769 6.7684 0.461509 7.70831 1.22568 8.34023L5.36606 11.7626Z" fill="#F2C94C"/>
<path d="M22.5923 13.6175L20.0824 16.1284L22.5923 18.6384L23.2198 18.0109C24.26 19.0511 24.26 20.7356 23.2198 21.7758L21.9649 23.0308C20.9247 24.071 19.2401 24.071 18.1999 23.0308L18.8274 22.4033L16.3174 19.8933L13.8092 22.4033L12.556 21.1483L14.4438 19.2658L12.6643 17.7952L18.3614 12.9208L19.4549 14.245L21.3374 12.3625L22.5923 13.6175Z" fill="#F2C94C"/>
</g>
<defs>
<clipPath id="clip0_111_730">
<rect width="24" height="24" fill="white"/>
</clipPath>
</defs>
</svg>
