<svg xmlns="http://www.w3.org/2000/svg" width="24" height="24" viewBox="0 0 24 24" fill="none">
<g clip-path="url(#clip0_729_1976)">
<path d="M11.4079 23.8421C3.68526 23.8421 0.655263 22.6658 0.529894 22.6156C0.305368 22.5253 0.157894 22.3077 0.157894 22.0658V10.8158C0.157894 10.4889 0.423157 10.2237 0.749999 10.2237C3.06916 10.2237 5.19253 11.3217 6.52674 13.1861C7.716 12.6897 8.93653 12.4355 10.6866 12.6868C12.1611 12.8946 13.5123 13.4274 14.5892 14.2134C14.7859 13.638 15.1137 13.1201 15.5529 12.702C15.9433 12.3357 16.1567 11.8816 16.1567 11.4199C16.1567 10.733 16.1529 9.88168 16.1498 9.26747L15.8403 9.37041C15.1996 9.5842 14.5042 9.42031 14.0267 8.94315L13.6124 8.52884C13.5259 8.44263 13.4223 8.38673 13.3127 8.36747L12.8896 8.28189C11.3182 7.9661 10.2726 6.42852 10.5591 4.85399C11.1373 1.65062 11.9716 0.158203 13.1845 0.158203C14.3533 0.158203 16.8309 0.835256 18.7033 1.40336C19.9772 1.78705 20.9953 2.77799 21.4257 4.05441L21.9887 5.74389C23.219 9.43484 23.8427 13.2786 23.8427 17.1692V19.1409C23.8427 21.1822 22.3295 22.9434 20.3229 23.238C18.5021 23.5134 15.4749 23.8421 11.4085 23.8421H11.4079Z" fill="#9B51E0"/>
</g>
<defs>
<clipPath id="clip0_729_1976">
<rect width="24" height="24" fill="white"/>
</clipPath>
</defs>
</svg>
