<svg width="24" height="24" viewBox="0 0 24 24" fill="none" xmlns="http://www.w3.org/2000/svg">
<path d="M3.23071 7.44238C3.23071 9.08097 4.55915 10.4094 6.19775 10.4094C6.8679 10.4094 7.48425 10.1844 7.98087 9.80994L7.98271 9.81231L9.16478 8.92194V14.8262L7.98271 13.9358L7.98087 13.9382C6.81832 13.0608 5.15889 13.1483 4.09972 14.2077C2.94113 15.3663 2.94113 17.2449 4.09972 18.4038C4.19915 18.5032 4.30544 18.591 4.41463 18.6733L4.41278 18.6757L10.3468 23.145L10.3487 23.1426C10.8456 23.5174 11.4617 23.7423 12.1318 23.7423C12.802 23.7423 13.4181 23.5174 13.9149 23.1429L13.9168 23.1452L19.8508 18.676L19.849 18.6736C20.5669 18.1321 21.0329 17.2747 21.0329 16.306C21.0329 14.6674 19.7045 13.339 18.0659 13.339C17.3957 13.339 16.7794 13.564 16.2828 13.9387L16.2809 13.9364L15.0988 14.8267V8.92194L16.2809 9.81231L16.2828 9.80994C17.4453 10.6874 19.1047 10.5998 20.1639 9.5404C21.3225 8.38181 21.3225 6.50322 20.1639 5.34436C20.0645 5.24493 19.9582 5.15711 19.849 5.07482L19.8508 5.07245L13.9168 0.603172L13.9149 0.605546C13.4181 0.230776 12.802 0.006073 12.1318 0.006073C11.4617 0.006073 10.8456 0.23104 10.3487 0.605546L10.3468 0.603172L4.41278 5.07245L4.41463 5.07482C3.69673 5.61653 3.23071 6.47394 3.23071 7.44238Z" fill="#2F80ED"/>
</svg>
