<svg width="24" height="24" viewBox="0 0 24 24" fill="none" xmlns="http://www.w3.org/2000/svg">
<path fill-rule="evenodd" clip-rule="evenodd" d="M16.0358 0.0234974C16.0533 -0.00142673 16.0876 -0.00748397 16.1125 0.00996815L17.8166 1.2032C17.8415 1.22065 17.8476 1.255 17.8301 1.27992L15.4583 4.66722C16.6114 5.03559 17.397 5.43295 17.397 5.43295C17.397 5.43295 15.4768 8.73586 12.22 8.73586C8.96313 8.73586 6.64886 5.65748 6.64886 5.65748C6.64886 5.65748 7.46946 5.1338 8.68586 4.68465L6.0843 1.58426C6.06475 1.56095 6.0678 1.5262 6.0911 1.50665L7.68471 0.169437C7.70805 0.149879 7.74279 0.152919 7.76233 0.176227L11.0563 4.10186C11.3384 4.06996 11.6257 4.05213 11.9157 4.05213C12.3325 4.05213 12.7487 4.08381 13.1551 4.13758L16.0358 0.0234974ZM16.6801 8.89228C17.5492 8.27156 18.8643 6.65147 18.8643 6.65147C18.8643 6.65147 22.2236 9.3135 22.2236 14.958C22.2236 20.6025 16.416 23.9996 16.416 23.9996C16.416 23.9996 13.6412 21.1974 12.96 17.6452C12.2789 14.0929 13.9676 10.1486 13.9676 10.1486C13.9676 10.1486 15.811 9.513 16.6801 8.89228ZM7.31997 8.89228C6.45086 8.27156 5.13574 6.65147 5.13574 6.65147C5.13574 6.65147 1.77649 9.3135 1.77649 14.958C1.77649 20.6025 7.58411 23.9996 7.58411 23.9996C7.58411 23.9996 10.3589 21.1974 11.0401 17.6452C11.7212 14.0929 10.0324 10.1486 10.0324 10.1486C10.0324 10.1486 8.18913 9.513 7.31997 8.89228Z" fill="#6FCF97"/>
</svg>
