<svg width="24" height="24" viewBox="0 0 24 24" fill="none" xmlns="http://www.w3.org/2000/svg">
<g id="Type=Rock" clip-path="url(#clip0_12_20)">
<path id="Vector" fill-rule="evenodd" clip-rule="evenodd" d="M18.569 12.1417C18.5676 12.1399 18.567 12.1375 18.5674 12.1352L20.0985 3.20713C20.0993 3.20302 20.1029 3.20001 20.107 3.20001H20.5916C20.5953 3.20001 20.5986 3.20244 20.5997 3.206L24.0493 14.128C24.0503 14.1314 24.0492 14.1352 24.0464 14.1374L21.503 16.1231C21.4992 16.1261 21.4937 16.1253 21.4908 16.1214L18.569 12.1417ZM0 18.0604C0 18.0641 0.00238106 18.0674 0.00590114 18.0686L5.24883 19.7828C5.25136 19.7837 5.25417 19.7833 5.25638 19.7818L16.9755 11.6911C16.9775 11.6898 16.9788 11.6877 16.9792 11.6853L18.2359 3.25291C18.2367 3.24773 18.2326 3.24308 18.2274 3.24308H7.84716C7.84458 3.24308 7.84219 3.24422 7.84055 3.24618L0.00196997 12.7022C0.000696562 12.7038 0 12.7057 0 12.7077V18.0604ZM7.43358 20.2196L13.1614 22.0959C13.164 22.0967 13.1668 22.0963 13.169 22.0947L19.9883 17.2032C19.9921 17.2005 19.9931 17.1953 19.9905 17.1915L17.4341 13.3873C17.4315 13.3833 17.4261 13.3823 17.4222 13.385L7.43358 20.2196Z" fill="#F2994A"/>
</g>
<defs>
<clipPath id="clip0_12_20">
<rect width="24" height="24" fill="white"/>
</clipPath>
</defs>
</svg>
