<svg width="24" height="24" viewBox="0 0 24 24" fill="none" xmlns="http://www.w3.org/2000/svg">
<path d="M11 6C11 3.23858 8.76142 1 6 1C3.23858 1 1 3.23858 1 6C1 8.76142 3.23858 11 6 11C8.76142 11 11 8.76142 11 6Z" fill="#F2C94C"/>
<path d="M23 6C23 3.23858 20.7614 1 18 1C15.2386 1 13 3.23858 13 6C13 8.76142 15.2386 11 18 11C20.7614 11 23 8.76142 23 6Z" fill="#F2C94C"/>
<path d="M13 18C13 15.2386 15.2386 13 18 13C20.7614 13 23 15.2386 23 18C23 20.7614 20.7614 23 18 23C15.2386 23 13 20.7614 13 18Z" fill="#F2C94C"/>
<path d="M11 18C11 15.2386 8.76142 13 6 13C3.23858 13 1 15.2386 1 18C1 20.7614 3.23858 23 6 23C8.76142 23 11 20.7614 11 18Z" fill="#F2C94C"/>
</svg>
