<svg width="24" height="24" viewBox="0 0 24 24" fill="none" xmlns="http://www.w3.org/2000/svg">
<path fill-rule="evenodd" clip-rule="evenodd" d="M13.1643 11.9475C13.3269 11.8484 13.4649 11.6405 13.5762 11.4095C15.0408 12.0081 16.07 13.4226 16.07 15.0722C16.07 17.2636 14.2536 19.0401 12.013 19.0401C11.0932 19.0401 10.2449 18.7407 9.56444 18.2362C9.34122 18.1305 9.15757 18.029 9.00729 17.9459C8.77418 17.817 8.62132 17.7325 8.5256 17.7457C8.2458 17.7843 8.32704 18.0417 8.40086 18.2756C8.45097 18.4344 8.49771 18.5824 8.42538 18.6435C8.34972 18.7074 8.10466 18.4737 7.8183 18.2007C7.42849 17.829 6.96218 17.3844 6.74229 17.518C6.56843 17.6236 6.73722 17.91 6.94385 18.2607L6.95918 18.2867C7.04646 18.4349 7.14761 18.5858 7.23991 18.7236C7.42755 19.0035 7.57868 19.229 7.50307 19.2672C7.41166 19.3133 6.77482 18.8835 6.23815 18.2867C6.031 18.0564 5.83038 17.8067 5.64391 17.5748V17.5747C5.23577 17.0669 4.89574 16.6438 4.70486 16.6939C4.47525 16.7542 4.64895 17.2278 4.90418 17.6836C5.02352 17.8967 5.16391 18.1138 5.28546 18.3017V18.3017C5.4745 18.594 5.61799 18.8157 5.56596 18.843C5.49574 18.8797 4.87788 18.2772 4.45823 17.518C4.20897 17.067 3.99967 16.5686 3.83023 16.1652C3.64647 15.7276 3.50959 15.4017 3.41946 15.3689C3.10631 15.2549 3.10631 15.8934 3.23191 16.8149C3.24829 16.9351 3.27269 17.0612 3.30273 17.1896C4.52074 21.1305 8.26235 24 12.6892 24C18.104 24 22.4936 19.7068 22.4936 14.4109C22.4936 9.37031 18.5172 5.23814 13.4651 4.85128C13.4715 4.61383 13.5954 4.14295 13.5954 4.14295C13.5954 4.14295 14.4873 1.98502 14.5345 1.5239C14.5376 1.4933 14.5413 1.46004 14.5452 1.42462C14.6008 0.926386 14.7041 0 13.9072 0C13.4816 0 13.2836 0.316624 13.0573 0.678745V0.67875C12.9704 0.817767 12.8793 0.963492 12.7695 1.10058C11.9788 2.08798 10.6492 3.32104 9.89533 3.97796C8.30186 5.36644 6.73849 6.50756 5.82668 7.17309L5.82663 7.17314C5.41193 7.47581 5.13204 7.68014 5.04541 7.76456C4.39263 8.40094 2.05206 12.6228 2.05206 12.6228C2.05206 12.6228 1.29514 13.9773 1.56418 14.252C1.83322 14.5267 2.48201 14.4637 2.48201 14.4637C2.48201 14.4637 11.198 12.4642 11.9783 12.3065C12.1884 12.264 12.3367 12.2395 12.4506 12.2207C12.7597 12.1697 12.8152 12.1605 13.1643 11.9475ZM7.00174 9.378C6.53388 9.8227 5.75796 10.8842 5.75796 10.8842C5.75796 10.8842 7.20002 10.973 7.99422 10.2181C8.78847 9.46312 8.6065 8.17655 8.6065 8.17655C8.6065 8.17655 7.46955 8.9333 7.00174 9.378Z" fill="#EB5757"/>
</svg>
