<svg width="24" height="24" viewBox="0 0 24 24" fill="none" xmlns="http://www.w3.org/2000/svg">
<g clip-path="url(#clip0_12_24)">
<path fill-rule="evenodd" clip-rule="evenodd" d="M21.3849 19.9331C21.3849 19.9331 18.3587 22.3603 12.3365 21.3559C7.76763 20.5938 5.33079 15.5573 5.33079 12.8501C5.33079 6.43149 10.0814 4.97081 13.2931 4.97081C16.5048 4.97081 18.6 8.10206 18.6 10.5264C18.6 12.9508 16.8853 15.0713 14.2168 15.0713C11.5484 15.0713 10.7581 13.198 10.7581 11.4757C10.7581 9.75338 12.1516 9.14658 13.4224 9.14658C14.6932 9.14658 15.1284 10.2315 15.1284 11.164C15.1284 12.0966 14.4048 12.4305 13.8014 12.4305C13.1979 12.4305 13.1382 12.126 12.9073 11.8061C12.6763 11.4862 13.2018 10.2751 12.3365 10.2751C11.4712 10.2751 11.3099 11.6673 11.3099 11.6673C11.3099 11.6673 11.6254 14.3548 14.2168 14.3085C16.8083 14.262 18.0377 12.2586 17.6804 10.2751C17.3231 8.29153 15.3981 6.1838 12.0197 6.6097C8.64119 7.03561 7.2618 10.4492 7.86982 14.0972C8.47783 17.7453 12.8481 19.859 16.2843 19.0985C19.7205 18.3381 23.1429 15.8504 23.1429 9.54324C23.1429 3.23601 17.6804 -0.555197 11.1669 0.0696155C4.65339 0.694425 0.610099 6.38897 0.868905 13.2311C1.12771 20.0732 7.62007 23.7996 13.11 23.9917C18.6 24.1838 21.9656 21.0058 21.9656 21.0058C21.9656 21.0058 22.7224 20.3308 22.4257 19.8038C22.129 19.2767 21.3849 19.9331 21.3849 19.9331Z" fill="#BB6BD9"/>
</g>
<defs>
<clipPath id="clip0_12_24">
<rect width="24" height="24" fill="white"/>
</clipPath>
</defs>
</svg>
