<svg width="24" height="24" viewBox="0 0 24 24" fill="none" xmlns="http://www.w3.org/2000/svg">
<path fill-rule="evenodd" clip-rule="evenodd" d="M5.28593 20.6323C5.27942 20.6323 5.27487 20.6258 5.27703 20.6197L11.4043 3.30633C11.4057 3.30257 11.4092 3.30005 11.4132 3.30005H17.9542C17.9582 3.30005 17.9618 3.30258 17.9631 3.30637L23.9995 20.6198C24.0016 20.6259 23.9971 20.6323 23.9906 20.6323H5.47006H5.28593ZM0.00955829 20.7C0.00297733 20.7 -0.0015788 20.6934 0.000729605 20.6873L4.56352 8.5058C4.56491 8.5021 4.56842 8.49966 4.57236 8.49966H8.5369C8.54347 8.49966 8.54801 8.50617 8.54576 8.51232L4.13367 20.6938C4.13232 20.6975 4.12877 20.7 4.1248 20.7H0.00955829Z" fill="#F2994A"/>
</svg>
