<svg width="24" height="24" viewBox="0 0 24 24" fill="none" xmlns="http://www.w3.org/2000/svg">
<g id="Type=Water">
<path id="Vector" fill-rule="evenodd" clip-rule="evenodd" d="M19.7853 16.2429C19.7853 20.5264 16.2997 23.9989 12 23.9989C7.7003 23.9989 4.21472 20.5264 4.21472 16.2429C4.21472 12.0768 11.5789 0.635058 11.9828 0.0106786C11.992 -0.00355962 12.0081 -0.00355949 12.0173 0.0106787C12.4211 0.635058 19.7853 12.0768 19.7853 16.2429ZM10.7022 21.5124C6.7516 20.648 7.42763 16.2717 7.42763 16.2717C7.42763 16.2717 8.50641 18.9135 11.1243 19.7693C13.7422 20.625 16.9059 19.3699 16.9059 19.3699C16.9059 19.3699 14.6528 22.3768 10.7022 21.5124Z" fill="#2F80ED"/>
</g>
</svg>
