<svg width="24" height="24" viewBox="0 0 24 24" fill="none" xmlns="http://www.w3.org/2000/svg">
<path fill-rule="evenodd" clip-rule="evenodd" d="M8.37712 22.4C11.8929 22.4 14.9028 20.446 16.1454 17.6761C16.1606 17.6423 11.1566 18.9766 11.3161 18.5049C11.3874 18.2943 14.4549 17.1737 16.6898 15.8666C17.9743 15.1154 18.5658 13.525 18.5658 13.525C18.5658 13.525 16.4017 14.5757 15.3077 14.8423C13.1031 15.3795 11.1624 15.3216 11.1624 15.2656C11.1624 15.1446 14.3848 14.5323 18.8636 11.803C20.9703 10.5193 21.5425 8.30799 21.5425 8.30799C21.5425 8.30799 19.2264 9.68761 17.8262 10.1431C14.5058 11.2232 11.4757 11.5487 11.4757 11.4026C11.4757 11.0896 14.1423 10.3564 16.9695 8.98646C18.4395 8.27419 19.7126 7.34363 21.1879 6.30877C23.6018 4.6156 24 1.60004 24 1.60004C24 1.60004 21.6191 3.13567 20.4572 3.64563C15.6629 5.74993 11.4295 6.85374 8.37712 7.09271C3.7695 7.45346 0 10.6683 0 14.8423C0 19.0163 3.75056 22.4 8.37712 22.4Z" fill="#56CCF2"/>
</svg>
