<svg width="24" height="24" viewBox="0 0 24 24" fill="none" xmlns="http://www.w3.org/2000/svg">
<g clip-path="url(#clip0_12_22)">
<path fill-rule="evenodd" clip-rule="evenodd" d="M4.13912 1.99526C4.42957 0.848503 5.46847 0 6.7055 0C7.63339 0 8.44981 0.477408 8.9225 1.2H9.69655C10.1774 0.706481 10.8493 0.4 11.5928 0.4C12.6828 0.4 13.619 1.05882 14.0248 2H14.6729C15.079 1.74649 15.5588 1.6 16.0728 1.6C17.1628 1.6 18.099 2.25882 18.5048 3.2H20.2671C20.2821 3.2 20.2963 3.20406 20.3084 3.21113C20.3889 3.20377 20.4704 3.2 20.5527 3.2C22.0148 3.2 23.2 4.38522 23.2 5.84728V13.7853L23.2001 13.8L23.2 13.8147V13.929C23.2 13.9775 23.1987 14.0257 23.1961 14.0737C23.0368 19.5805 18.0852 24 12 24C5.81445 24 0.800049 19.4333 0.800049 13.8C0.800049 11.0808 1.9684 8.61014 3.87287 6.78164C3.86812 9.43256 3.9129 12.1732 4.1193 12.1261C4.67198 12.0001 4.24016 3.78935 4.13912 1.99526Z" fill="#F2994A"/>
</g>
<defs>
<clipPath id="clip0_12_22">
<rect width="24" height="24" fill="white"/>
</clipPath>
</defs>
</svg>
