<svg width="24" height="24" viewBox="0 0 24 24" fill="none" xmlns="http://www.w3.org/2000/svg">
<g clip-path="url(#clip0_12_30)">
<path fill-rule="evenodd" clip-rule="evenodd" d="M10.7683 21.2273C11.2242 21.2971 11.6912 21.3333 12.1667 21.3333C17.2293 21.3333 21.3333 17.2293 21.3333 12.1667C21.3333 7.10405 17.2293 3 12.1667 3C11.827 3 11.4916 3.01847 11.1616 3.05447C13.6729 4.95708 15.3333 8.25291 15.3333 12C15.3333 15.9394 13.4981 19.38 10.7683 21.2273ZM12 24C18.6274 24 24 18.6274 24 12C24 5.37258 18.6274 0 12 0C5.37257 0 0 5.37258 0 12C0 18.6274 5.37257 24 12 24Z" fill="#9B51E0"/>
</g>
<defs>
<clipPath id="clip0_12_30">
<rect width="24" height="24" fill="white"/>
</clipPath>
</defs>
</svg>
