<svg width="24" height="24" viewBox="0 0 24 24" fill="none" xmlns="http://www.w3.org/2000/svg">
<g id="Type=Steel">
<path id="Vector" fill-rule="evenodd" clip-rule="evenodd" d="M0.00239581 11.9372C-0.000797091 11.9317 -0.000798694 11.925 0.00239154 11.9195L6.03727 1.60861C6.04041 1.60327 6.04617 1.59998 6.05236 1.59998H18.0138C18.02 1.59998 18.0258 1.60329 18.0289 1.60869L23.9976 11.9196C24.0008 11.925 24.0008 11.9317 23.9976 11.9371L18.0289 22.2364C18.0258 22.2418 18.02 22.2451 18.0138 22.2451H6.05236C6.04617 22.2451 6.04041 22.2418 6.03727 22.2365L0.00239581 11.9372ZM17.5602 11.9226C17.5602 14.9923 15.0716 17.4808 12.0019 17.4808C8.93213 17.4808 6.44358 14.9923 6.44358 11.9226C6.44358 8.85276 8.93213 6.36426 12.0019 6.36426C15.0716 6.36426 17.5602 8.85276 17.5602 11.9226Z" fill="#2D9CDB"/>
</g>
</svg>
