<svg width="24" height="24" viewBox="0 0 24 24" fill="none" xmlns="http://www.w3.org/2000/svg">
<path fill-rule="evenodd" clip-rule="evenodd" d="M4.7406 20.6074C4.65822 20.5299 4.57676 20.4509 4.49623 20.3704C0.245396 16.1196 0.245396 9.22757 4.49623 4.97676C8.74705 0.725905 22.2919 0.441528 22.2919 0.441528C22.2919 0.441528 24.1407 16.1196 19.8899 20.3704C16.1146 24.1457 10.2561 24.568 6.01466 21.6374L9.43222 17.4435L14.8955 16.264L10.4359 15.8182L13.27 12.9324L16.4961 12.2257L13.9451 11.4702L16.4961 6.86821L12.8676 10.9383L11.4663 8.96095L11.9596 12.2257L9.43222 15.0749L8.26068 11.4702V16.264L4.7406 20.6074Z" fill="#219653"/>
</svg>
