<svg width="24" height="24" viewBox="0 0 24 24" fill="none" xmlns="http://www.w3.org/2000/svg">
<g clip-path="url(#clip0_12_18)">
<path fill-rule="evenodd" clip-rule="evenodd" d="M16.5202 18.5341C16.8167 17.4498 16.2411 15.2208 16.2411 15.2208C16.2411 15.2208 15.8236 17.0367 15.1713 17.7078C14.6148 18.2803 13.933 18.6774 12.9552 18.7817C13.7547 18.3934 14.3045 17.5837 14.3045 16.6479C14.3045 15.3342 13.2211 14.2692 11.8847 14.2692C10.5483 14.2692 9.46486 15.3342 9.46486 16.6479C9.46486 17.0067 9.54572 17.3469 9.69042 17.652C8.85455 16.9861 8.72311 15.9185 8.72311 15.9185C8.72311 15.9185 7.78973 19.7936 10.3616 21.6165C12.9334 23.4394 17.9715 21.8725 17.9715 21.8725C17.9715 21.8725 10.7617 26.9455 5.41913 21.4242C0.816976 16.668 4.21796 10.4064 4.21796 10.4064C4.21796 10.4064 4.07108 10.9873 4.07108 11.6616C4.07108 12.3359 4.43667 12.8489 4.43667 12.8489C4.43667 12.8489 5.52722 10.5502 6.37594 9.61538C7.17919 8.73066 8.18611 8.01309 9.05583 7.39331C9.7253 6.91622 10.3135 6.49706 10.6648 6.1042C12.5996 3.94072 11.4133 0 11.4133 0C11.4133 0 13.5944 1.92281 14.2033 4.40615C14.4354 5.35275 14.286 6.4298 14.1525 7.39294C13.9358 8.9565 13.7606 10.2199 15.3265 10.1379C17.8569 10.0054 15.658 6.1042 15.658 6.1042C15.658 6.1042 21.398 9.12108 20.9692 14.3974C20.5403 19.6738 14.6951 20.8733 14.6951 20.8733C14.6951 20.8733 16.2236 19.6184 16.5202 18.5341Z" fill="#EB5757"/>
</g>
<defs>
<clipPath id="clip0_12_18">
<rect width="24" height="24" fill="white"/>
</clipPath>
</defs>
</svg>
